<mxfile host="Electron" modified="2024-05-03T04:58:50.131Z" agent="Mozilla/5.0 (Windows NT 10.0; Win64; x64) AppleWebKit/537.36 (KHTML, like Gecko) draw.io/22.0.3 Chrome/114.0.5735.289 Electron/25.8.4 Safari/537.36" etag="EHxoyizI3sv8AKKgPpan" version="22.0.3" type="device">
  <diagram name="Page-1" id="LcTc4TEcnXebtZFCzB5L">
    <mxGraphModel dx="2922" dy="1212" grid="1" gridSize="10" guides="0" tooltips="1" connect="1" arrows="1" fold="1" page="1" pageScale="1" pageWidth="850" pageHeight="1100" math="0" shadow="0">
      <root>
        <mxCell id="0" />
        <mxCell id="1" parent="0" />
        <mxCell id="M0fPOjq36mxvyhpcFTFy-1" value="Main" style="swimlane;fontStyle=0;childLayout=stackLayout;horizontal=1;startSize=26;fillColor=none;horizontalStack=0;resizeParent=1;resizeParentMax=0;resizeLast=0;collapsible=1;marginBottom=0;whiteSpace=wrap;html=1;" vertex="1" parent="1">
          <mxGeometry x="-440" y="110" width="230" height="234" as="geometry" />
        </mxCell>
        <mxCell id="M0fPOjq36mxvyhpcFTFy-2" value="-scanner: Scanner" style="text;strokeColor=none;fillColor=none;align=left;verticalAlign=top;spacingLeft=4;spacingRight=4;overflow=hidden;rotatable=0;points=[[0,0.5],[1,0.5]];portConstraint=eastwest;whiteSpace=wrap;html=1;" vertex="1" parent="M0fPOjq36mxvyhpcFTFy-1">
          <mxGeometry y="26" width="230" height="26" as="geometry" />
        </mxCell>
        <mxCell id="M0fPOjq36mxvyhpcFTFy-3" value="-login: Login" style="text;strokeColor=none;fillColor=none;align=left;verticalAlign=top;spacingLeft=4;spacingRight=4;overflow=hidden;rotatable=0;points=[[0,0.5],[1,0.5]];portConstraint=eastwest;whiteSpace=wrap;html=1;" vertex="1" parent="M0fPOjq36mxvyhpcFTFy-1">
          <mxGeometry y="52" width="230" height="26" as="geometry" />
        </mxCell>
        <mxCell id="M0fPOjq36mxvyhpcFTFy-4" value="-admin: Admin" style="text;strokeColor=none;fillColor=none;align=left;verticalAlign=top;spacingLeft=4;spacingRight=4;overflow=hidden;rotatable=0;points=[[0,0.5],[1,0.5]];portConstraint=eastwest;whiteSpace=wrap;html=1;" vertex="1" parent="M0fPOjq36mxvyhpcFTFy-1">
          <mxGeometry y="78" width="230" height="26" as="geometry" />
        </mxCell>
        <mxCell id="M0fPOjq36mxvyhpcFTFy-8" value="-restaurants: List&amp;lt;Restaurants&amp;gt;" style="text;strokeColor=none;fillColor=none;align=left;verticalAlign=top;spacingLeft=4;spacingRight=4;overflow=hidden;rotatable=0;points=[[0,0.5],[1,0.5]];portConstraint=eastwest;whiteSpace=wrap;html=1;" vertex="1" parent="M0fPOjq36mxvyhpcFTFy-1">
          <mxGeometry y="104" width="230" height="26" as="geometry" />
        </mxCell>
        <mxCell id="M0fPOjq36mxvyhpcFTFy-9" value="+main(string[arg]: void&amp;nbsp;" style="text;strokeColor=none;fillColor=none;align=left;verticalAlign=top;spacingLeft=4;spacingRight=4;overflow=hidden;rotatable=0;points=[[0,0.5],[1,0.5]];portConstraint=eastwest;whiteSpace=wrap;html=1;" vertex="1" parent="M0fPOjq36mxvyhpcFTFy-1">
          <mxGeometry y="130" width="230" height="26" as="geometry" />
        </mxCell>
        <mxCell id="M0fPOjq36mxvyhpcFTFy-10" value="+namakelompok(): void&amp;nbsp;" style="text;strokeColor=none;fillColor=none;align=left;verticalAlign=top;spacingLeft=4;spacingRight=4;overflow=hidden;rotatable=0;points=[[0,0.5],[1,0.5]];portConstraint=eastwest;whiteSpace=wrap;html=1;" vertex="1" parent="M0fPOjq36mxvyhpcFTFy-1">
          <mxGeometry y="156" width="230" height="26" as="geometry" />
        </mxCell>
        <mxCell id="M0fPOjq36mxvyhpcFTFy-11" value="+namaProject(): void" style="text;strokeColor=none;fillColor=none;align=left;verticalAlign=top;spacingLeft=4;spacingRight=4;overflow=hidden;rotatable=0;points=[[0,0.5],[1,0.5]];portConstraint=eastwest;whiteSpace=wrap;html=1;" vertex="1" parent="M0fPOjq36mxvyhpcFTFy-1">
          <mxGeometry y="182" width="230" height="26" as="geometry" />
        </mxCell>
        <mxCell id="M0fPOjq36mxvyhpcFTFy-72" value="-scanner: Scanner" style="text;strokeColor=none;fillColor=none;align=left;verticalAlign=top;spacingLeft=4;spacingRight=4;overflow=hidden;rotatable=0;points=[[0,0.5],[1,0.5]];portConstraint=eastwest;whiteSpace=wrap;html=1;" vertex="1" parent="M0fPOjq36mxvyhpcFTFy-1">
          <mxGeometry y="208" width="230" height="26" as="geometry" />
        </mxCell>
        <mxCell id="M0fPOjq36mxvyhpcFTFy-13" value="Login" style="swimlane;fontStyle=0;childLayout=stackLayout;horizontal=1;startSize=26;fillColor=none;horizontalStack=0;resizeParent=1;resizeParentMax=0;resizeLast=0;collapsible=1;marginBottom=0;whiteSpace=wrap;html=1;" vertex="1" parent="1">
          <mxGeometry x="-740" y="740" width="400" height="234" as="geometry" />
        </mxCell>
        <mxCell id="M0fPOjq36mxvyhpcFTFy-14" value="-admin_username: String&amp;nbsp;" style="text;strokeColor=none;fillColor=none;align=left;verticalAlign=top;spacingLeft=4;spacingRight=4;overflow=hidden;rotatable=0;points=[[0,0.5],[1,0.5]];portConstraint=eastwest;whiteSpace=wrap;html=1;" vertex="1" parent="M0fPOjq36mxvyhpcFTFy-13">
          <mxGeometry y="26" width="400" height="26" as="geometry" />
        </mxCell>
        <mxCell id="M0fPOjq36mxvyhpcFTFy-15" value="-admin_password: String&amp;nbsp;" style="text;strokeColor=none;fillColor=none;align=left;verticalAlign=top;spacingLeft=4;spacingRight=4;overflow=hidden;rotatable=0;points=[[0,0.5],[1,0.5]];portConstraint=eastwest;whiteSpace=wrap;html=1;" vertex="1" parent="M0fPOjq36mxvyhpcFTFy-13">
          <mxGeometry y="52" width="400" height="26" as="geometry" />
        </mxCell>
        <mxCell id="M0fPOjq36mxvyhpcFTFy-16" value="-customer_username: String" style="text;strokeColor=none;fillColor=none;align=left;verticalAlign=top;spacingLeft=4;spacingRight=4;overflow=hidden;rotatable=0;points=[[0,0.5],[1,0.5]];portConstraint=eastwest;whiteSpace=wrap;html=1;" vertex="1" parent="M0fPOjq36mxvyhpcFTFy-13">
          <mxGeometry y="78" width="400" height="26" as="geometry" />
        </mxCell>
        <mxCell id="M0fPOjq36mxvyhpcFTFy-17" value="-customer_password:String" style="text;strokeColor=none;fillColor=none;align=left;verticalAlign=top;spacingLeft=4;spacingRight=4;overflow=hidden;rotatable=0;points=[[0,0.5],[1,0.5]];portConstraint=eastwest;whiteSpace=wrap;html=1;" vertex="1" parent="M0fPOjq36mxvyhpcFTFy-13">
          <mxGeometry y="104" width="400" height="26" as="geometry" />
        </mxCell>
        <mxCell id="M0fPOjq36mxvyhpcFTFy-18" value="getAdmind_username():&amp;nbsp; String" style="text;strokeColor=none;fillColor=none;align=left;verticalAlign=top;spacingLeft=4;spacingRight=4;overflow=hidden;rotatable=0;points=[[0,0.5],[1,0.5]];portConstraint=eastwest;whiteSpace=wrap;html=1;" vertex="1" parent="M0fPOjq36mxvyhpcFTFy-13">
          <mxGeometry y="130" width="400" height="26" as="geometry" />
        </mxCell>
        <mxCell id="M0fPOjq36mxvyhpcFTFy-19" value="getAdmin_password(): String&amp;nbsp;" style="text;strokeColor=none;fillColor=none;align=left;verticalAlign=top;spacingLeft=4;spacingRight=4;overflow=hidden;rotatable=0;points=[[0,0.5],[1,0.5]];portConstraint=eastwest;whiteSpace=wrap;html=1;" vertex="1" parent="M0fPOjq36mxvyhpcFTFy-13">
          <mxGeometry y="156" width="400" height="26" as="geometry" />
        </mxCell>
        <mxCell id="M0fPOjq36mxvyhpcFTFy-20" value="getCustomer_username(): String" style="text;strokeColor=none;fillColor=none;align=left;verticalAlign=top;spacingLeft=4;spacingRight=4;overflow=hidden;rotatable=0;points=[[0,0.5],[1,0.5]];portConstraint=eastwest;whiteSpace=wrap;html=1;" vertex="1" parent="M0fPOjq36mxvyhpcFTFy-13">
          <mxGeometry y="182" width="400" height="26" as="geometry" />
        </mxCell>
        <mxCell id="M0fPOjq36mxvyhpcFTFy-21" value="getCustomer_password(): String" style="text;strokeColor=none;fillColor=none;align=left;verticalAlign=top;spacingLeft=4;spacingRight=4;overflow=hidden;rotatable=0;points=[[0,0.5],[1,0.5]];portConstraint=eastwest;whiteSpace=wrap;html=1;" vertex="1" parent="M0fPOjq36mxvyhpcFTFy-13">
          <mxGeometry y="208" width="400" height="26" as="geometry" />
        </mxCell>
        <mxCell id="M0fPOjq36mxvyhpcFTFy-22" value="Restaurant" style="swimlane;fontStyle=0;childLayout=stackLayout;horizontal=1;startSize=26;fillColor=none;horizontalStack=0;resizeParent=1;resizeParentMax=0;resizeLast=0;collapsible=1;marginBottom=0;whiteSpace=wrap;html=1;" vertex="1" parent="1">
          <mxGeometry x="-40" y="40" width="400" height="312" as="geometry" />
        </mxCell>
        <mxCell id="M0fPOjq36mxvyhpcFTFy-23" value="-id: int" style="text;strokeColor=none;fillColor=none;align=left;verticalAlign=top;spacingLeft=4;spacingRight=4;overflow=hidden;rotatable=0;points=[[0,0.5],[1,0.5]];portConstraint=eastwest;whiteSpace=wrap;html=1;" vertex="1" parent="M0fPOjq36mxvyhpcFTFy-22">
          <mxGeometry y="26" width="400" height="26" as="geometry" />
        </mxCell>
        <mxCell id="M0fPOjq36mxvyhpcFTFy-24" value="-nama: String" style="text;strokeColor=none;fillColor=none;align=left;verticalAlign=top;spacingLeft=4;spacingRight=4;overflow=hidden;rotatable=0;points=[[0,0.5],[1,0.5]];portConstraint=eastwest;whiteSpace=wrap;html=1;" vertex="1" parent="M0fPOjq36mxvyhpcFTFy-22">
          <mxGeometry y="52" width="400" height="26" as="geometry" />
        </mxCell>
        <mxCell id="M0fPOjq36mxvyhpcFTFy-25" value="-alamat: String&amp;nbsp;" style="text;strokeColor=none;fillColor=none;align=left;verticalAlign=top;spacingLeft=4;spacingRight=4;overflow=hidden;rotatable=0;points=[[0,0.5],[1,0.5]];portConstraint=eastwest;whiteSpace=wrap;html=1;" vertex="1" parent="M0fPOjq36mxvyhpcFTFy-22">
          <mxGeometry y="78" width="400" height="26" as="geometry" />
        </mxCell>
        <mxCell id="M0fPOjq36mxvyhpcFTFy-26" value="menuList: List&amp;lt;menu&amp;gt;" style="text;strokeColor=none;fillColor=none;align=left;verticalAlign=top;spacingLeft=4;spacingRight=4;overflow=hidden;rotatable=0;points=[[0,0.5],[1,0.5]];portConstraint=eastwest;whiteSpace=wrap;html=1;" vertex="1" parent="M0fPOjq36mxvyhpcFTFy-22">
          <mxGeometry y="104" width="400" height="26" as="geometry" />
        </mxCell>
        <mxCell id="M0fPOjq36mxvyhpcFTFy-27" value="+Restaurant(id: int, nam: String, alamat: String): void&amp;nbsp;" style="text;strokeColor=none;fillColor=none;align=left;verticalAlign=top;spacingLeft=4;spacingRight=4;overflow=hidden;rotatable=0;points=[[0,0.5],[1,0.5]];portConstraint=eastwest;whiteSpace=wrap;html=1;" vertex="1" parent="M0fPOjq36mxvyhpcFTFy-22">
          <mxGeometry y="130" width="400" height="26" as="geometry" />
        </mxCell>
        <mxCell id="M0fPOjq36mxvyhpcFTFy-28" value="+getId(): int&amp;nbsp;" style="text;strokeColor=none;fillColor=none;align=left;verticalAlign=top;spacingLeft=4;spacingRight=4;overflow=hidden;rotatable=0;points=[[0,0.5],[1,0.5]];portConstraint=eastwest;whiteSpace=wrap;html=1;" vertex="1" parent="M0fPOjq36mxvyhpcFTFy-22">
          <mxGeometry y="156" width="400" height="26" as="geometry" />
        </mxCell>
        <mxCell id="M0fPOjq36mxvyhpcFTFy-29" value="+getName(): String&amp;nbsp;" style="text;strokeColor=none;fillColor=none;align=left;verticalAlign=top;spacingLeft=4;spacingRight=4;overflow=hidden;rotatable=0;points=[[0,0.5],[1,0.5]];portConstraint=eastwest;whiteSpace=wrap;html=1;" vertex="1" parent="M0fPOjq36mxvyhpcFTFy-22">
          <mxGeometry y="182" width="400" height="26" as="geometry" />
        </mxCell>
        <mxCell id="M0fPOjq36mxvyhpcFTFy-30" value="+getAlamat(): String" style="text;strokeColor=none;fillColor=none;align=left;verticalAlign=top;spacingLeft=4;spacingRight=4;overflow=hidden;rotatable=0;points=[[0,0.5],[1,0.5]];portConstraint=eastwest;whiteSpace=wrap;html=1;" vertex="1" parent="M0fPOjq36mxvyhpcFTFy-22">
          <mxGeometry y="208" width="400" height="26" as="geometry" />
        </mxCell>
        <mxCell id="M0fPOjq36mxvyhpcFTFy-31" value="+getMenuList(): List&amp;lt;Name&amp;gt;" style="text;strokeColor=none;fillColor=none;align=left;verticalAlign=top;spacingLeft=4;spacingRight=4;overflow=hidden;rotatable=0;points=[[0,0.5],[1,0.5]];portConstraint=eastwest;whiteSpace=wrap;html=1;" vertex="1" parent="M0fPOjq36mxvyhpcFTFy-22">
          <mxGeometry y="234" width="400" height="26" as="geometry" />
        </mxCell>
        <mxCell id="M0fPOjq36mxvyhpcFTFy-32" value="+tambahMenu(jenis : int, namaMenu: String, harga: Double): void&amp;nbsp;" style="text;strokeColor=none;fillColor=none;align=left;verticalAlign=top;spacingLeft=4;spacingRight=4;overflow=hidden;rotatable=0;points=[[0,0.5],[1,0.5]];portConstraint=eastwest;whiteSpace=wrap;html=1;" vertex="1" parent="M0fPOjq36mxvyhpcFTFy-22">
          <mxGeometry y="260" width="400" height="26" as="geometry" />
        </mxCell>
        <mxCell id="M0fPOjq36mxvyhpcFTFy-33" value="+lihatMenu(): void" style="text;strokeColor=none;fillColor=none;align=left;verticalAlign=top;spacingLeft=4;spacingRight=4;overflow=hidden;rotatable=0;points=[[0,0.5],[1,0.5]];portConstraint=eastwest;whiteSpace=wrap;html=1;" vertex="1" parent="M0fPOjq36mxvyhpcFTFy-22">
          <mxGeometry y="286" width="400" height="26" as="geometry" />
        </mxCell>
        <mxCell id="M0fPOjq36mxvyhpcFTFy-34" value="Order&amp;nbsp;" style="swimlane;fontStyle=0;childLayout=stackLayout;horizontal=1;startSize=26;fillColor=none;horizontalStack=0;resizeParent=1;resizeParentMax=0;resizeLast=0;collapsible=1;marginBottom=0;whiteSpace=wrap;html=1;" vertex="1" parent="1">
          <mxGeometry x="540" y="230" width="400" height="328" as="geometry" />
        </mxCell>
        <mxCell id="M0fPOjq36mxvyhpcFTFy-35" value="-idRestaurant: int&amp;nbsp;" style="text;strokeColor=none;fillColor=none;align=left;verticalAlign=top;spacingLeft=4;spacingRight=4;overflow=hidden;rotatable=0;points=[[0,0.5],[1,0.5]];portConstraint=eastwest;whiteSpace=wrap;html=1;" vertex="1" parent="M0fPOjq36mxvyhpcFTFy-34">
          <mxGeometry y="26" width="400" height="26" as="geometry" />
        </mxCell>
        <mxCell id="M0fPOjq36mxvyhpcFTFy-36" value="-idMenu: int" style="text;strokeColor=none;fillColor=none;align=left;verticalAlign=top;spacingLeft=4;spacingRight=4;overflow=hidden;rotatable=0;points=[[0,0.5],[1,0.5]];portConstraint=eastwest;whiteSpace=wrap;html=1;" vertex="1" parent="M0fPOjq36mxvyhpcFTFy-34">
          <mxGeometry y="52" width="400" height="26" as="geometry" />
        </mxCell>
        <mxCell id="M0fPOjq36mxvyhpcFTFy-37" value="-kuantitas: int&amp;nbsp;" style="text;strokeColor=none;fillColor=none;align=left;verticalAlign=top;spacingLeft=4;spacingRight=4;overflow=hidden;rotatable=0;points=[[0,0.5],[1,0.5]];portConstraint=eastwest;whiteSpace=wrap;html=1;" vertex="1" parent="M0fPOjq36mxvyhpcFTFy-34">
          <mxGeometry y="78" width="400" height="26" as="geometry" />
        </mxCell>
        <mxCell id="M0fPOjq36mxvyhpcFTFy-38" value="-jarak: double" style="text;strokeColor=none;fillColor=none;align=left;verticalAlign=top;spacingLeft=4;spacingRight=4;overflow=hidden;rotatable=0;points=[[0,0.5],[1,0.5]];portConstraint=eastwest;whiteSpace=wrap;html=1;" vertex="1" parent="M0fPOjq36mxvyhpcFTFy-34">
          <mxGeometry y="104" width="400" height="26" as="geometry" />
        </mxCell>
        <mxCell id="M0fPOjq36mxvyhpcFTFy-39" value="-totalHarga: double&amp;nbsp;" style="text;strokeColor=none;fillColor=none;align=left;verticalAlign=top;spacingLeft=4;spacingRight=4;overflow=hidden;rotatable=0;points=[[0,0.5],[1,0.5]];portConstraint=eastwest;whiteSpace=wrap;html=1;" vertex="1" parent="M0fPOjq36mxvyhpcFTFy-34">
          <mxGeometry y="130" width="400" height="26" as="geometry" />
        </mxCell>
        <mxCell id="M0fPOjq36mxvyhpcFTFy-40" value="+Order(idRestaurant: int, idMenu: int, kuantitas: int, jarak: double, totalHarga: double): void&amp;nbsp;" style="text;strokeColor=none;fillColor=none;align=left;verticalAlign=top;spacingLeft=4;spacingRight=4;overflow=hidden;rotatable=0;points=[[0,0.5],[1,0.5]];portConstraint=eastwest;whiteSpace=wrap;html=1;" vertex="1" parent="M0fPOjq36mxvyhpcFTFy-34">
          <mxGeometry y="156" width="400" height="42" as="geometry" />
        </mxCell>
        <mxCell id="M0fPOjq36mxvyhpcFTFy-41" value="+getIdRestaurant(): int&amp;nbsp;" style="text;strokeColor=none;fillColor=none;align=left;verticalAlign=top;spacingLeft=4;spacingRight=4;overflow=hidden;rotatable=0;points=[[0,0.5],[1,0.5]];portConstraint=eastwest;whiteSpace=wrap;html=1;" vertex="1" parent="M0fPOjq36mxvyhpcFTFy-34">
          <mxGeometry y="198" width="400" height="26" as="geometry" />
        </mxCell>
        <mxCell id="M0fPOjq36mxvyhpcFTFy-42" value="+getIdMenu(): int&amp;nbsp;" style="text;strokeColor=none;fillColor=none;align=left;verticalAlign=top;spacingLeft=4;spacingRight=4;overflow=hidden;rotatable=0;points=[[0,0.5],[1,0.5]];portConstraint=eastwest;whiteSpace=wrap;html=1;" vertex="1" parent="M0fPOjq36mxvyhpcFTFy-34">
          <mxGeometry y="224" width="400" height="26" as="geometry" />
        </mxCell>
        <mxCell id="M0fPOjq36mxvyhpcFTFy-43" value="+getKuantitas(): int&amp;nbsp;" style="text;strokeColor=none;fillColor=none;align=left;verticalAlign=top;spacingLeft=4;spacingRight=4;overflow=hidden;rotatable=0;points=[[0,0.5],[1,0.5]];portConstraint=eastwest;whiteSpace=wrap;html=1;" vertex="1" parent="M0fPOjq36mxvyhpcFTFy-34">
          <mxGeometry y="250" width="400" height="26" as="geometry" />
        </mxCell>
        <mxCell id="M0fPOjq36mxvyhpcFTFy-44" value="getJarak(): double" style="text;strokeColor=none;fillColor=none;align=left;verticalAlign=top;spacingLeft=4;spacingRight=4;overflow=hidden;rotatable=0;points=[[0,0.5],[1,0.5]];portConstraint=eastwest;whiteSpace=wrap;html=1;" vertex="1" parent="M0fPOjq36mxvyhpcFTFy-34">
          <mxGeometry y="276" width="400" height="26" as="geometry" />
        </mxCell>
        <mxCell id="M0fPOjq36mxvyhpcFTFy-45" value="getTotalHarga(): double" style="text;strokeColor=none;fillColor=none;align=left;verticalAlign=top;spacingLeft=4;spacingRight=4;overflow=hidden;rotatable=0;points=[[0,0.5],[1,0.5]];portConstraint=eastwest;whiteSpace=wrap;html=1;" vertex="1" parent="M0fPOjq36mxvyhpcFTFy-34">
          <mxGeometry y="302" width="400" height="26" as="geometry" />
        </mxCell>
        <mxCell id="M0fPOjq36mxvyhpcFTFy-47" value="Menu" style="swimlane;fontStyle=0;childLayout=stackLayout;horizontal=1;startSize=26;fillColor=none;horizontalStack=0;resizeParent=1;resizeParentMax=0;resizeLast=0;collapsible=1;marginBottom=0;whiteSpace=wrap;html=1;" vertex="1" parent="1">
          <mxGeometry x="90" y="480" width="400" height="206" as="geometry" />
        </mxCell>
        <mxCell id="M0fPOjq36mxvyhpcFTFy-48" value="-menuMakanan: Map&amp;lt;String, Double&amp;gt;" style="text;strokeColor=none;fillColor=none;align=left;verticalAlign=top;spacingLeft=4;spacingRight=4;overflow=hidden;rotatable=0;points=[[0,0.5],[1,0.5]];portConstraint=eastwest;whiteSpace=wrap;html=1;" vertex="1" parent="M0fPOjq36mxvyhpcFTFy-47">
          <mxGeometry y="26" width="400" height="26" as="geometry" />
        </mxCell>
        <mxCell id="M0fPOjq36mxvyhpcFTFy-49" value="-menuMinuman: Map&amp;lt;String, Double&amp;gt;" style="text;strokeColor=none;fillColor=none;align=left;verticalAlign=top;spacingLeft=4;spacingRight=4;overflow=hidden;rotatable=0;points=[[0,0.5],[1,0.5]];portConstraint=eastwest;whiteSpace=wrap;html=1;" vertex="1" parent="M0fPOjq36mxvyhpcFTFy-47">
          <mxGeometry y="52" width="400" height="26" as="geometry" />
        </mxCell>
        <mxCell id="M0fPOjq36mxvyhpcFTFy-51" value="+tambahMenuMakanan(nama: String, harga: double): void&amp;nbsp;" style="text;strokeColor=none;fillColor=none;align=left;verticalAlign=top;spacingLeft=4;spacingRight=4;overflow=hidden;rotatable=0;points=[[0,0.5],[1,0.5]];portConstraint=eastwest;whiteSpace=wrap;html=1;" vertex="1" parent="M0fPOjq36mxvyhpcFTFy-47">
          <mxGeometry y="78" width="400" height="26" as="geometry" />
        </mxCell>
        <mxCell id="M0fPOjq36mxvyhpcFTFy-52" value="+tambahMenuMinuman(nama: String, harga: double): void&amp;nbsp;" style="text;strokeColor=none;fillColor=none;align=left;verticalAlign=top;spacingLeft=4;spacingRight=4;overflow=hidden;rotatable=0;points=[[0,0.5],[1,0.5]];portConstraint=eastwest;whiteSpace=wrap;html=1;" vertex="1" parent="M0fPOjq36mxvyhpcFTFy-47">
          <mxGeometry y="104" width="400" height="26" as="geometry" />
        </mxCell>
        <mxCell id="M0fPOjq36mxvyhpcFTFy-53" value="+getMenuMakanan(): Map&amp;lt;String, Double&amp;gt;" style="text;strokeColor=none;fillColor=none;align=left;verticalAlign=top;spacingLeft=4;spacingRight=4;overflow=hidden;rotatable=0;points=[[0,0.5],[1,0.5]];portConstraint=eastwest;whiteSpace=wrap;html=1;" vertex="1" parent="M0fPOjq36mxvyhpcFTFy-47">
          <mxGeometry y="130" width="400" height="24" as="geometry" />
        </mxCell>
        <mxCell id="M0fPOjq36mxvyhpcFTFy-54" value="+getMenuMinuman(): Map&amp;lt;String, Double&amp;gt;" style="text;strokeColor=none;fillColor=none;align=left;verticalAlign=top;spacingLeft=4;spacingRight=4;overflow=hidden;rotatable=0;points=[[0,0.5],[1,0.5]];portConstraint=eastwest;whiteSpace=wrap;html=1;" vertex="1" parent="M0fPOjq36mxvyhpcFTFy-47">
          <mxGeometry y="154" width="400" height="26" as="geometry" />
        </mxCell>
        <mxCell id="M0fPOjq36mxvyhpcFTFy-55" value="+getIdMenu(): String&amp;nbsp;" style="text;strokeColor=none;fillColor=none;align=left;verticalAlign=top;spacingLeft=4;spacingRight=4;overflow=hidden;rotatable=0;points=[[0,0.5],[1,0.5]];portConstraint=eastwest;whiteSpace=wrap;html=1;" vertex="1" parent="M0fPOjq36mxvyhpcFTFy-47">
          <mxGeometry y="180" width="400" height="26" as="geometry" />
        </mxCell>
        <mxCell id="M0fPOjq36mxvyhpcFTFy-88" style="edgeStyle=orthogonalEdgeStyle;rounded=0;orthogonalLoop=1;jettySize=auto;html=1;entryX=0.5;entryY=0;entryDx=0;entryDy=0;" edge="1" parent="1" source="M0fPOjq36mxvyhpcFTFy-73" target="M0fPOjq36mxvyhpcFTFy-13">
          <mxGeometry relative="1" as="geometry" />
        </mxCell>
        <mxCell id="M0fPOjq36mxvyhpcFTFy-73" value="Admin" style="swimlane;fontStyle=0;childLayout=stackLayout;horizontal=1;startSize=26;fillColor=none;horizontalStack=0;resizeParent=1;resizeParentMax=0;resizeLast=0;collapsible=1;marginBottom=0;whiteSpace=wrap;html=1;" vertex="1" parent="1">
          <mxGeometry x="-800" y="290" width="230" height="230" as="geometry" />
        </mxCell>
        <mxCell id="M0fPOjq36mxvyhpcFTFy-74" value="+scanner: Scanner&amp;nbsp;" style="text;strokeColor=none;fillColor=none;align=left;verticalAlign=top;spacingLeft=4;spacingRight=4;overflow=hidden;rotatable=0;points=[[0,0.5],[1,0.5]];portConstraint=eastwest;whiteSpace=wrap;html=1;" vertex="1" parent="M0fPOjq36mxvyhpcFTFy-73">
          <mxGeometry y="26" width="230" height="26" as="geometry" />
        </mxCell>
        <mxCell id="M0fPOjq36mxvyhpcFTFy-75" value="+restaurants: List&amp;lt;Restaurant&amp;gt;" style="text;strokeColor=none;fillColor=none;align=left;verticalAlign=top;spacingLeft=4;spacingRight=4;overflow=hidden;rotatable=0;points=[[0,0.5],[1,0.5]];portConstraint=eastwest;whiteSpace=wrap;html=1;" vertex="1" parent="M0fPOjq36mxvyhpcFTFy-73">
          <mxGeometry y="52" width="230" height="26" as="geometry" />
        </mxCell>
        <mxCell id="M0fPOjq36mxvyhpcFTFy-76" value="+Admin()" style="text;strokeColor=none;fillColor=none;align=left;verticalAlign=top;spacingLeft=4;spacingRight=4;overflow=hidden;rotatable=0;points=[[0,0.5],[1,0.5]];portConstraint=eastwest;whiteSpace=wrap;html=1;" vertex="1" parent="M0fPOjq36mxvyhpcFTFy-73">
          <mxGeometry y="78" width="230" height="26" as="geometry" />
        </mxCell>
        <mxCell id="M0fPOjq36mxvyhpcFTFy-77" value="+getRestaurant(): List&amp;lt;Restaurant&amp;nbsp;" style="text;strokeColor=none;fillColor=none;align=left;verticalAlign=top;spacingLeft=4;spacingRight=4;overflow=hidden;rotatable=0;points=[[0,0.5],[1,0.5]];portConstraint=eastwest;whiteSpace=wrap;html=1;" vertex="1" parent="M0fPOjq36mxvyhpcFTFy-73">
          <mxGeometry y="104" width="230" height="26" as="geometry" />
        </mxCell>
        <mxCell id="M0fPOjq36mxvyhpcFTFy-78" value="+adminMenu(): void&amp;nbsp;" style="text;strokeColor=none;fillColor=none;align=left;verticalAlign=top;spacingLeft=4;spacingRight=4;overflow=hidden;rotatable=0;points=[[0,0.5],[1,0.5]];portConstraint=eastwest;whiteSpace=wrap;html=1;" vertex="1" parent="M0fPOjq36mxvyhpcFTFy-73">
          <mxGeometry y="130" width="230" height="26" as="geometry" />
        </mxCell>
        <mxCell id="M0fPOjq36mxvyhpcFTFy-79" value="-lihatRestaurant(): void&amp;nbsp;" style="text;strokeColor=none;fillColor=none;align=left;verticalAlign=top;spacingLeft=4;spacingRight=4;overflow=hidden;rotatable=0;points=[[0,0.5],[1,0.5]];portConstraint=eastwest;whiteSpace=wrap;html=1;" vertex="1" parent="M0fPOjq36mxvyhpcFTFy-73">
          <mxGeometry y="156" width="230" height="26" as="geometry" />
        </mxCell>
        <mxCell id="M0fPOjq36mxvyhpcFTFy-80" value="+tambahrestaurant(): void&amp;nbsp;" style="text;strokeColor=none;fillColor=none;align=left;verticalAlign=top;spacingLeft=4;spacingRight=4;overflow=hidden;rotatable=0;points=[[0,0.5],[1,0.5]];portConstraint=eastwest;whiteSpace=wrap;html=1;" vertex="1" parent="M0fPOjq36mxvyhpcFTFy-73">
          <mxGeometry y="182" width="230" height="26" as="geometry" />
        </mxCell>
        <mxCell id="M0fPOjq36mxvyhpcFTFy-81" value="-hapusRestaurant(): void&amp;nbsp;" style="text;strokeColor=none;fillColor=none;align=left;verticalAlign=top;spacingLeft=4;spacingRight=4;overflow=hidden;rotatable=0;points=[[0,0.5],[1,0.5]];portConstraint=eastwest;whiteSpace=wrap;html=1;" vertex="1" parent="M0fPOjq36mxvyhpcFTFy-73">
          <mxGeometry y="208" width="230" height="22" as="geometry" />
        </mxCell>
        <mxCell id="M0fPOjq36mxvyhpcFTFy-85" style="edgeStyle=orthogonalEdgeStyle;rounded=0;orthogonalLoop=1;jettySize=auto;html=1;" edge="1" parent="1" source="M0fPOjq36mxvyhpcFTFy-8" target="M0fPOjq36mxvyhpcFTFy-73">
          <mxGeometry relative="1" as="geometry" />
        </mxCell>
        <mxCell id="M0fPOjq36mxvyhpcFTFy-60" value="Customer&amp;nbsp;" style="swimlane;fontStyle=0;childLayout=stackLayout;horizontal=1;startSize=26;fillColor=none;horizontalStack=0;resizeParent=1;resizeParentMax=0;resizeLast=0;collapsible=1;marginBottom=0;whiteSpace=wrap;html=1;" vertex="1" parent="1">
          <mxGeometry x="-170" y="730" width="400" height="284" as="geometry" />
        </mxCell>
        <mxCell id="M0fPOjq36mxvyhpcFTFy-61" value="-scanner: Scanner" style="text;strokeColor=none;fillColor=none;align=left;verticalAlign=top;spacingLeft=4;spacingRight=4;overflow=hidden;rotatable=0;points=[[0,0.5],[1,0.5]];portConstraint=eastwest;whiteSpace=wrap;html=1;" vertex="1" parent="M0fPOjq36mxvyhpcFTFy-60">
          <mxGeometry y="26" width="400" height="26" as="geometry" />
        </mxCell>
        <mxCell id="M0fPOjq36mxvyhpcFTFy-62" value="-pesanana: List&amp;lt;Order&amp;gt;" style="text;strokeColor=none;fillColor=none;align=left;verticalAlign=top;spacingLeft=4;spacingRight=4;overflow=hidden;rotatable=0;points=[[0,0.5],[1,0.5]];portConstraint=eastwest;whiteSpace=wrap;html=1;" vertex="1" parent="M0fPOjq36mxvyhpcFTFy-60">
          <mxGeometry y="52" width="400" height="26" as="geometry" />
        </mxCell>
        <mxCell id="M0fPOjq36mxvyhpcFTFy-63" value="-restaurants: List&amp;lt;Restaurant&amp;gt;" style="text;strokeColor=none;fillColor=none;align=left;verticalAlign=top;spacingLeft=4;spacingRight=4;overflow=hidden;rotatable=0;points=[[0,0.5],[1,0.5]];portConstraint=eastwest;whiteSpace=wrap;html=1;" vertex="1" parent="M0fPOjq36mxvyhpcFTFy-60">
          <mxGeometry y="78" width="400" height="26" as="geometry" />
        </mxCell>
        <mxCell id="M0fPOjq36mxvyhpcFTFy-64" value="+Customer(restaurants: List&amp;lt;Restaurant&amp;gt;): void&amp;nbsp;" style="text;strokeColor=none;fillColor=none;align=left;verticalAlign=top;spacingLeft=4;spacingRight=4;overflow=hidden;rotatable=0;points=[[0,0.5],[1,0.5]];portConstraint=eastwest;whiteSpace=wrap;html=1;" vertex="1" parent="M0fPOjq36mxvyhpcFTFy-60">
          <mxGeometry y="104" width="400" height="26" as="geometry" />
        </mxCell>
        <mxCell id="M0fPOjq36mxvyhpcFTFy-65" value="+customerMenu(): void&amp;nbsp;" style="text;strokeColor=none;fillColor=none;align=left;verticalAlign=top;spacingLeft=4;spacingRight=4;overflow=hidden;rotatable=0;points=[[0,0.5],[1,0.5]];portConstraint=eastwest;whiteSpace=wrap;html=1;" vertex="1" parent="M0fPOjq36mxvyhpcFTFy-60">
          <mxGeometry y="130" width="400" height="26" as="geometry" />
        </mxCell>
        <mxCell id="M0fPOjq36mxvyhpcFTFy-66" value="buatPesanan(): void&amp;nbsp;" style="text;strokeColor=none;fillColor=none;align=left;verticalAlign=top;spacingLeft=4;spacingRight=4;overflow=hidden;rotatable=0;points=[[0,0.5],[1,0.5]];portConstraint=eastwest;whiteSpace=wrap;html=1;" vertex="1" parent="M0fPOjq36mxvyhpcFTFy-60">
          <mxGeometry y="156" width="400" height="24" as="geometry" />
        </mxCell>
        <mxCell id="M0fPOjq36mxvyhpcFTFy-67" value="+lihatPesanan(): void&amp;nbsp;" style="text;strokeColor=none;fillColor=none;align=left;verticalAlign=top;spacingLeft=4;spacingRight=4;overflow=hidden;rotatable=0;points=[[0,0.5],[1,0.5]];portConstraint=eastwest;whiteSpace=wrap;html=1;" vertex="1" parent="M0fPOjq36mxvyhpcFTFy-60">
          <mxGeometry y="180" width="400" height="26" as="geometry" />
        </mxCell>
        <mxCell id="M0fPOjq36mxvyhpcFTFy-68" value="lihatRestaurant(): void&amp;nbsp;" style="text;strokeColor=none;fillColor=none;align=left;verticalAlign=top;spacingLeft=4;spacingRight=4;overflow=hidden;rotatable=0;points=[[0,0.5],[1,0.5]];portConstraint=eastwest;whiteSpace=wrap;html=1;" vertex="1" parent="M0fPOjq36mxvyhpcFTFy-60">
          <mxGeometry y="206" width="400" height="26" as="geometry" />
        </mxCell>
        <mxCell id="M0fPOjq36mxvyhpcFTFy-69" value="getRestaurants(): List&amp;lt;restaurant&amp;gt;&amp;nbsp;" style="text;strokeColor=none;fillColor=none;align=left;verticalAlign=top;spacingLeft=4;spacingRight=4;overflow=hidden;rotatable=0;points=[[0,0.5],[1,0.5]];portConstraint=eastwest;whiteSpace=wrap;html=1;" vertex="1" parent="M0fPOjq36mxvyhpcFTFy-60">
          <mxGeometry y="232" width="400" height="26" as="geometry" />
        </mxCell>
        <mxCell id="M0fPOjq36mxvyhpcFTFy-71" value="setRestaurants(restaurants: List&amp;lt;Restaurant&amp;gt;: void&amp;nbsp;" style="text;strokeColor=none;fillColor=none;align=left;verticalAlign=top;spacingLeft=4;spacingRight=4;overflow=hidden;rotatable=0;points=[[0,0.5],[1,0.5]];portConstraint=eastwest;whiteSpace=wrap;html=1;" vertex="1" parent="M0fPOjq36mxvyhpcFTFy-60">
          <mxGeometry y="258" width="400" height="26" as="geometry" />
        </mxCell>
        <mxCell id="M0fPOjq36mxvyhpcFTFy-50" value="+Menu()" style="text;strokeColor=none;fillColor=none;align=left;verticalAlign=top;spacingLeft=4;spacingRight=4;overflow=hidden;rotatable=0;points=[[0,0.5],[1,0.5]];portConstraint=eastwest;whiteSpace=wrap;html=1;" vertex="1" parent="1">
          <mxGeometry x="1430" y="870" width="400" height="26" as="geometry" />
        </mxCell>
        <mxCell id="M0fPOjq36mxvyhpcFTFy-94" style="edgeStyle=orthogonalEdgeStyle;rounded=0;orthogonalLoop=1;jettySize=auto;html=1;entryX=0;entryY=0.5;entryDx=0;entryDy=0;" edge="1" parent="1" source="M0fPOjq36mxvyhpcFTFy-28" target="M0fPOjq36mxvyhpcFTFy-52">
          <mxGeometry relative="1" as="geometry" />
        </mxCell>
        <mxCell id="M0fPOjq36mxvyhpcFTFy-97" style="edgeStyle=orthogonalEdgeStyle;rounded=0;orthogonalLoop=1;jettySize=auto;html=1;entryX=1;entryY=0.5;entryDx=0;entryDy=0;" edge="1" parent="1" source="M0fPOjq36mxvyhpcFTFy-65" target="M0fPOjq36mxvyhpcFTFy-52">
          <mxGeometry relative="1" as="geometry" />
        </mxCell>
        <mxCell id="M0fPOjq36mxvyhpcFTFy-99" value="" style="endArrow=none;html=1;edgeStyle=orthogonalEdgeStyle;rounded=0;exitX=1.016;exitY=1.169;exitDx=0;exitDy=0;exitPerimeter=0;" edge="1" parent="1" source="M0fPOjq36mxvyhpcFTFy-67" target="M0fPOjq36mxvyhpcFTFy-34">
          <mxGeometry relative="1" as="geometry">
            <mxPoint x="160" y="700" as="sourcePoint" />
            <mxPoint x="320" y="700" as="targetPoint" />
          </mxGeometry>
        </mxCell>
        <mxCell id="M0fPOjq36mxvyhpcFTFy-102" value="" style="endArrow=none;html=1;edgeStyle=orthogonalEdgeStyle;rounded=0;exitX=-0.001;exitY=0.056;exitDx=0;exitDy=0;exitPerimeter=0;" edge="1" parent="1" source="M0fPOjq36mxvyhpcFTFy-34" target="M0fPOjq36mxvyhpcFTFy-26">
          <mxGeometry relative="1" as="geometry">
            <mxPoint x="740" y="400" as="sourcePoint" />
            <mxPoint x="900" y="400" as="targetPoint" />
          </mxGeometry>
        </mxCell>
        <mxCell id="M0fPOjq36mxvyhpcFTFy-105" value="" style="endArrow=none;html=1;edgeStyle=orthogonalEdgeStyle;rounded=0;entryX=-0.002;entryY=1.092;entryDx=0;entryDy=0;entryPerimeter=0;" edge="1" parent="1" source="M0fPOjq36mxvyhpcFTFy-77" target="M0fPOjq36mxvyhpcFTFy-26">
          <mxGeometry relative="1" as="geometry">
            <mxPoint x="-290" y="400" as="sourcePoint" />
            <mxPoint x="-130" y="400" as="targetPoint" />
            <Array as="points">
              <mxPoint x="-129" y="417" />
              <mxPoint x="-129" y="400" />
              <mxPoint x="-111" y="400" />
            </Array>
          </mxGeometry>
        </mxCell>
        <mxCell id="M0fPOjq36mxvyhpcFTFy-112" style="edgeStyle=orthogonalEdgeStyle;rounded=0;orthogonalLoop=1;jettySize=auto;html=1;" edge="1" parent="1" source="M0fPOjq36mxvyhpcFTFy-78" target="M0fPOjq36mxvyhpcFTFy-47">
          <mxGeometry relative="1" as="geometry" />
        </mxCell>
        <mxCell id="M0fPOjq36mxvyhpcFTFy-113" style="edgeStyle=orthogonalEdgeStyle;rounded=0;orthogonalLoop=1;jettySize=auto;html=1;entryX=0.25;entryY=0;entryDx=0;entryDy=0;" edge="1" parent="1" source="M0fPOjq36mxvyhpcFTFy-80" target="M0fPOjq36mxvyhpcFTFy-60">
          <mxGeometry relative="1" as="geometry" />
        </mxCell>
        <mxCell id="M0fPOjq36mxvyhpcFTFy-114" value="1..*" style="text;html=1;align=center;verticalAlign=middle;resizable=0;points=[];autosize=1;strokeColor=none;fillColor=none;fontSize=16;" vertex="1" parent="1">
          <mxGeometry x="-135" y="538" width="50" height="30" as="geometry" />
        </mxCell>
        <mxCell id="M0fPOjq36mxvyhpcFTFy-115" value="" style="endArrow=none;html=1;edgeStyle=orthogonalEdgeStyle;rounded=0;exitX=0.978;exitY=0.038;exitDx=0;exitDy=0;exitPerimeter=0;entryX=0.016;entryY=-0.192;entryDx=0;entryDy=0;entryPerimeter=0;" edge="1" parent="1" source="M0fPOjq36mxvyhpcFTFy-17" target="M0fPOjq36mxvyhpcFTFy-64">
          <mxGeometry relative="1" as="geometry">
            <mxPoint y="540" as="sourcePoint" />
            <mxPoint x="160" y="540" as="targetPoint" />
            <Array as="points">
              <mxPoint x="-330" y="845" />
              <mxPoint x="-330" y="829" />
            </Array>
          </mxGeometry>
        </mxCell>
        <mxCell id="M0fPOjq36mxvyhpcFTFy-118" value="1..*" style="text;html=1;align=center;verticalAlign=middle;resizable=0;points=[];autosize=1;strokeColor=none;fillColor=none;fontSize=14;" vertex="1" parent="1">
          <mxGeometry x="-320" y="828" width="40" height="30" as="geometry" />
        </mxCell>
        <mxCell id="M0fPOjq36mxvyhpcFTFy-119" value="1..*" style="text;html=1;align=center;verticalAlign=middle;resizable=0;points=[];autosize=1;strokeColor=none;fillColor=none;fontSize=14;" vertex="1" parent="1">
          <mxGeometry x="-210" y="790" width="40" height="30" as="geometry" />
        </mxCell>
        <mxCell id="M0fPOjq36mxvyhpcFTFy-120" style="edgeStyle=orthogonalEdgeStyle;rounded=0;orthogonalLoop=1;jettySize=auto;html=1;entryX=0.054;entryY=-0.192;entryDx=0;entryDy=0;entryPerimeter=0;" edge="1" parent="1" source="M0fPOjq36mxvyhpcFTFy-13" target="M0fPOjq36mxvyhpcFTFy-23">
          <mxGeometry relative="1" as="geometry" />
        </mxCell>
        <mxCell id="M0fPOjq36mxvyhpcFTFy-122" value="1..*" style="text;html=1;align=center;verticalAlign=middle;resizable=0;points=[];autosize=1;strokeColor=none;fillColor=none;fontSize=15;" vertex="1" parent="1">
          <mxGeometry x="335" y="398" width="50" height="30" as="geometry" />
        </mxCell>
        <mxCell id="M0fPOjq36mxvyhpcFTFy-123" value="1..*" style="text;html=1;align=center;verticalAlign=middle;resizable=0;points=[];autosize=1;strokeColor=none;fillColor=none;fontSize=14;" vertex="1" parent="1">
          <mxGeometry x="410" y="118" width="40" height="30" as="geometry" />
        </mxCell>
        <mxCell id="M0fPOjq36mxvyhpcFTFy-125" value="1..*" style="text;html=1;align=center;verticalAlign=middle;resizable=0;points=[];autosize=1;strokeColor=none;fillColor=none;fontSize=14;" vertex="1" parent="1">
          <mxGeometry x="650" y="940" width="40" height="30" as="geometry" />
        </mxCell>
      </root>
    </mxGraphModel>
  </diagram>
</mxfile>
